<?xml version="1.0" standalone="no"?>
<!DOCTYPE svg PUBLIC "-//W3C//DTD SVG 20010904//EN"
 "http://www.w3.org/TR/2001/REC-SVG-20010904/DTD/svg10.dtd">
<svg version="1.0" xmlns="http://www.w3.org/2000/svg"
 width="320.000000pt" height="320.000000pt" viewBox="0 0 320.000000 320.000000"
 preserveAspectRatio="xMidYMid meet">
<metadata>
Created by potrace 1.11, written by Peter Selinger 2001-2013
</metadata>
<g transform="translate(0.000000,320.000000) scale(0.100000,-0.100000)"
fill="#000000" stroke="none">
<path d="M1467 3082 c-14 -16 -17 -44 -17 -179 l0 -160 -51 -11 c-209 -49
-392 -185 -484 -363 -49 -94 -68 -226 -51 -347 24 -162 118 -299 280 -407 93
-62 173 -101 362 -175 360 -143 458 -223 449 -365 -11 -179 -210 -288 -450
-246 -134 24 -298 104 -407 200 -24 21 -45 31 -60 29 -28 -4 -217 -243 -218
-275 0 -29 66 -92 165 -158 122 -81 263 -139 403 -166 l62 -12 0 -158 c0 -198
-8 -189 167 -189 169 0 163 -7 163 195 0 85 3 155 8 156 37 4 74 14 135 35
210 75 378 251 433 454 26 98 24 266 -5 350 -72 210 -227 329 -622 480 -343
131 -448 214 -449 354 0 98 69 185 179 227 76 29 225 37 306 16 105 -27 169
-56 263 -117 50 -33 100 -60 111 -60 11 0 28 12 39 28 40 58 142 251 142 269
0 33 -97 112 -205 165 -63 32 -191 73 -272 89 l-63 12 0 158 c0 198 8 189
-171 189 -109 0 -128 -2 -142 -18z"/>
</g>
</svg>
